<svg width="20" height="20" viewBox="0 0 20 20" fill="none" xmlns="http://www.w3.org/2000/svg">
<path d="M15.8333 18.3337H4.16667C3.24619 18.3337 2.5 17.5875 2.5 16.667V5.00033C2.5 4.07985 3.24619 3.33366 4.16667 3.33366H5.83333V1.66699H7.5V3.33366H12.5V1.66699H14.1667V3.33366H15.8333C16.7538 3.33366 17.5 4.07985 17.5 5.00033V16.667C17.5 17.5875 16.7538 18.3337 15.8333 18.3337ZM4.16667 8.33366V16.667H15.8333V8.33366H4.16667ZM4.16667 5.00033V6.66699H15.8333V5.00033H4.16667ZM9.16667 15.3453L6.0775 12.2562L7.25583 11.0778L9.16667 12.9887L12.7442 9.41116L13.9225 10.5895L9.16667 15.3445V15.3453Z" fill="#BDBBFE"/>
</svg>
