<svg width="40" height="40" viewBox="0 0 40 40" fill="none" xmlns="http://www.w3.org/2000/svg">
<path d="M20 40C8.9543 40 0 31.0457 0 20C0 8.9543 8.9543 0 20 0C31.0457 0 40 8.9543 40 20C39.9879 31.0407 31.0407 39.9879 20 40ZM19.968 36H20C28.8334 35.9912 35.9884 28.8254 35.984 19.992C35.9796 11.1586 28.8174 4.00001 19.984 4.00001C11.1506 4.00001 3.98842 11.1586 3.984 19.992C3.97959 28.8254 11.1346 35.9912 19.968 36ZM16 30L8 22L10.82 19.18L16 24.34L29.18 11.16L32 14L16 30Z" fill="#BDBBFE"/>
</svg>
