<svg width="32" height="32" viewBox="0 0 32 32" fill="none" xmlns="http://www.w3.org/2000/svg">
<path d="M18.9094 13.2883C18.9094 13.2883 20.1667 5.88299 15.0307 2.66699C14.954 3.93931 14.6099 5.18116 14.0208 6.3115C13.4317 7.44185 12.611 8.43528 11.612 9.22699C9.41736 11.1577 5.28936 15.4883 5.33336 20.119C5.31866 22.0955 5.85604 24.0368 6.885 25.7244C7.91395 27.412 9.39361 28.7788 11.1574 29.671C11.2207 28.7785 11.4615 27.9076 11.8656 27.1092C12.2697 26.3109 12.829 25.6012 13.5107 25.0217C14.0887 24.5775 14.5723 24.0226 14.9334 23.3894C15.2944 22.7561 15.5256 22.0573 15.6134 21.3337C17.1244 22.1363 18.4012 23.3175 19.3188 24.7616C20.2364 26.2058 20.7633 27.8634 20.848 29.5723V29.6003C22.5125 28.8366 23.9333 27.6275 24.9536 26.1067C25.9739 24.586 26.5538 22.8127 26.6294 20.983C26.7413 17.2267 25.4788 13.5586 23.0787 10.667" stroke="#CD1515" stroke-width="2" stroke-miterlimit="10" stroke-linecap="square"/>
</svg>
