<svg width="17" height="16" viewBox="0 0 17 16" fill="none" xmlns="http://www.w3.org/2000/svg">
<path d="M12.2301 14.0035H12.2114C9.65028 13.9405 7.20625 12.9179 5.3634 11.1382C3.58308 9.29702 2.55986 6.85391 2.49666 4.29353C2.49288 3.93486 2.63371 3.58977 2.8874 3.3362L4.69673 1.5282C4.95707 1.26794 5.37907 1.26794 5.6394 1.5282L8.30607 4.19487C8.56632 4.4552 8.56632 4.8772 8.30607 5.13753L7.24207 6.19953C7.43941 6.93681 7.80291 7.61913 8.30473 8.1942C8.87876 8.6962 9.56021 9.05995 10.2967 9.25753L11.3634 8.19487C11.6237 7.93461 12.0457 7.93461 12.3061 8.19487L14.9727 10.8615C15.233 11.1219 15.233 11.5439 14.9727 11.8042L13.1634 13.6129C12.9167 13.8621 12.5808 14.0027 12.2301 14.0035ZM5.16673 2.94287H5.1634L3.83007 4.27887C3.88443 6.4913 4.76761 8.60267 6.30473 10.1949C7.89702 11.7314 10.008 12.6145 12.2201 12.6695L13.5581 11.3329L11.8301 9.60953L10.9681 10.4709C10.8448 10.5956 10.6768 10.6659 10.5014 10.6662C10.4546 10.6662 10.4079 10.6613 10.3621 10.6515C9.25115 10.4058 8.21966 9.88523 7.36207 9.13753C6.61437 8.27994 6.09381 7.24845 5.84807 6.13753C5.80171 5.91671 5.87019 5.68742 6.03007 5.5282L6.8914 4.6662L5.16673 2.94287Z" fill="white"/>
</svg>
