<svg width="20" height="20" viewBox="0 0 20 20" fill="none" xmlns="http://www.w3.org/2000/svg">
<path d="M3.33325 16.6664V10.8331H9.16658L6.48575 13.5164C7.41072 14.4623 8.67697 14.9967 9.99992 14.9997C12.1161 14.9966 14.0012 13.6616 14.7066 11.6664H14.7216C14.817 11.3953 14.8892 11.1165 14.9374 10.8331H16.6141C16.1941 14.1663 13.3595 16.6663 9.99992 16.6664H9.99158C8.22389 16.6717 6.52755 15.9695 5.28075 14.7164L3.33325 16.6664ZM5.06159 9.16641H3.38492C3.80471 5.83442 6.63742 3.33486 9.99575 3.33304H9.99992C11.7679 3.32738 13.4647 4.02961 14.7116 5.28308L16.6666 3.33304V9.16641H10.8333L13.5183 6.48308C12.5923 5.53611 11.3243 5.00153 9.99992 4.99974C7.88371 5.00287 5.99865 6.33789 5.29325 8.33308H5.27825C5.18205 8.604 5.10983 8.88285 5.06242 9.16641H5.06159Z" fill="#BDBBFE"/>
</svg>
