<svg width="24" height="24" viewBox="0 0 24 24" fill="none" xmlns="http://www.w3.org/2000/svg">
<path fill-rule="evenodd" clip-rule="evenodd" d="M20.7502 19.4825L21.0199 19.222C21.2496 19.4598 21.378 19.7775 21.378 20.1081C21.378 20.4388 21.2496 20.7565 21.0199 20.9943L21.0165 20.9977C20.898 21.1173 20.7571 21.2121 20.6017 21.2769C20.4464 21.3417 20.2798 21.375 20.1115 21.375C19.9432 21.375 19.7765 21.3417 19.6212 21.2769C19.4662 21.2123 19.3254 21.1176 19.2071 20.9984L19.2064 20.9977L16.1298 17.9193C14.4838 19.136 12.4492 19.7176 10.402 19.5491C8.24267 19.3714 6.23347 18.3726 4.78756 16.7582C3.34165 15.1438 2.56891 13.0364 2.62817 10.8695C2.68743 8.70255 3.57419 6.64064 5.10618 5.10774C6.63817 3.57484 8.69895 2.68748 10.8648 2.62818C13.0306 2.56887 15.1368 3.34215 16.7503 4.78894C18.3638 6.23572 19.3619 8.24603 19.5395 10.4065C19.7079 12.4544 19.1269 14.4898 17.9113 16.1366L21.0144 19.2164L20.7502 19.4825ZM11.1153 17.0462C9.94406 17.0462 8.79907 16.6987 7.82516 16.0475C6.85125 15.3964 6.09214 14.4709 5.64387 13.388C5.1956 12.3052 5.0783 11.1136 5.30683 9.964C5.53536 8.81441 6.09944 7.75849 6.92771 6.92973C7.75597 6.10097 8.81122 5.53661 9.95999 5.30797C11.1088 5.07933 12.2995 5.19667 13.3816 5.64517C14.4638 6.09367 15.3887 6.8532 16.0395 7.82773C16.6903 8.80227 17.0376 9.94804 17.0376 11.1202C17.0376 12.6919 16.4136 14.1992 15.3029 15.3106C14.1923 16.4219 12.6859 17.0462 11.1153 17.0462Z" fill="#554BC8"/>
</svg>
