<svg width="32" height="32" viewBox="0 0 32 32" fill="none" xmlns="http://www.w3.org/2000/svg">
<path d="M9.3335 30.667C11.5426 30.667 13.3335 28.8761 13.3335 26.667C13.3335 24.4579 11.5426 22.667 9.3335 22.667C7.12436 22.667 5.3335 24.4579 5.3335 26.667C5.3335 28.8761 7.12436 30.667 9.3335 30.667Z" stroke="#CD1515" stroke-width="2" stroke-miterlimit="10" stroke-linecap="square"/>
<path d="M22.667 30.667C24.8761 30.667 26.667 28.8761 26.667 26.667C26.667 24.4579 24.8761 22.667 22.667 22.667C20.4579 22.667 18.667 24.4579 18.667 26.667C18.667 28.8761 20.4579 30.667 22.667 30.667Z" stroke="#CD1515" stroke-width="2" stroke-miterlimit="10" stroke-linecap="square"/>
<path d="M18.6668 26.667H13.3335" stroke="#CD1515" stroke-width="2" stroke-miterlimit="10" stroke-linecap="square"/>
<path d="M5.3335 26.667H1.3335V6.66699H24.0002L30.6668 14.667V26.667H26.6668" stroke="#CD1515" stroke-width="2" stroke-miterlimit="10" stroke-linecap="square"/>
<path d="M13.1346 1.1346C13.5409 0.728273 14.092 0.5 14.6667 0.5C15.2413 0.5 15.7924 0.728273 16.1987 1.1346C16.6051 1.54093 16.8333 2.09203 16.8333 2.66667V3.5H12.5V2.66667C12.5 2.09203 12.7283 1.54093 13.1346 1.1346Z" fill="#CD1515" stroke="#CD1515"/>
<path d="M21.3335 12V16H26.6668" stroke="#CD1515" stroke-width="2" stroke-miterlimit="10" stroke-linecap="square"/>
<path d="M12 12V17.3333" stroke="#CD1515" stroke-width="2" stroke-miterlimit="10" stroke-linecap="square"/>
<path d="M9.3335 14.667H14.6668" stroke="#CD1515" stroke-width="2" stroke-miterlimit="10" stroke-linecap="square"/>
</svg>
