<svg width="24" height="24" viewBox="0 0 24 24" fill="none" xmlns="http://www.w3.org/2000/svg">
<path d="M4.00004 17L1.62104 19.379C1.22338 19.7769 1 20.3164 1 20.879C1 21.4416 1.22338 21.9811 1.62104 22.379C2.01895 22.7767 2.55848 23 3.12104 23C3.68359 23 4.22313 22.7767 4.62104 22.379L7.00004 20" stroke="#7F7CFF" stroke-width="2" stroke-miterlimit="10" stroke-linecap="round" stroke-linejoin="round"/>
<path d="M8.58606 11.586L10.0001 13" stroke="#7F7CFF" stroke-width="2" stroke-miterlimit="10" stroke-linecap="round" stroke-linejoin="round"/>
<path d="M11.5861 8.586L13.0001 10" stroke="#7F7CFF" stroke-width="2" stroke-miterlimit="10" stroke-linecap="round" stroke-linejoin="round"/>
<path d="M10 19L20.176 8.80901C21.0859 7.89788 21.6918 6.72777 21.9109 5.45892C22.13 4.19007 21.9516 2.88451 21.4 1.72101C19.9 3.0544 18.0018 3.85549 16 4.00001L6 14" stroke="#7F7CFF" stroke-width="2" stroke-miterlimit="10" stroke-linecap="round" stroke-linejoin="round"/>
<path d="M4 13L11 20" stroke="#7F7CFF" stroke-width="2" stroke-miterlimit="10" stroke-linecap="round" stroke-linejoin="round"/>
</svg>
