<svg width="24" height="24" viewBox="0 0 24 24" fill="none" xmlns="http://www.w3.org/2000/svg">
<path d="M21.2644 20.4981C21.4429 20.4979 21.6078 20.4026 21.697 20.2479C21.7861 20.0934 21.7861 19.9032 21.6972 19.7487L21.2644 20.4981ZM21.2644 20.4981H2.73288C2.55427 20.4981 2.38921 20.4028 2.29989 20.2481C2.21065 20.0935 2.21058 19.9031 2.29969 19.7485C2.29976 19.7483 2.29983 19.7482 2.2999 19.7481L11.5656 3.74869L11.5656 3.74857C11.655 3.59412 11.8199 3.49902 11.9984 3.49902C12.1768 3.49902 12.3418 3.59412 12.4311 3.74857L12.4312 3.74869L21.6969 19.7481L21.2644 20.4981ZM12.4325 5.74743L11.9998 5.00075L11.5672 5.74748L4.03624 18.7475L3.60139 19.4981H4.46888H19.5329H20.4005L19.9655 18.7474L12.4325 5.74743ZM12.4949 14.4991H11.4949V10.4981H12.4949V14.4991ZM12.4999 16.5001V17.5001H11.4999V16.5001H12.4999Z" fill="white" stroke="white"/>
</svg>
