<svg width="24" height="24" viewBox="0 0 24 24" fill="none" xmlns="http://www.w3.org/2000/svg">
<path d="M21 12H23" stroke="#7F7CFF" stroke-width="2" stroke-miterlimit="10" stroke-linecap="round" stroke-linejoin="round"/>
<path d="M14 12H17" stroke="#7F7CFF" stroke-width="2" stroke-miterlimit="10" stroke-linecap="round" stroke-linejoin="round"/>
<path d="M7 12H10" stroke="#7F7CFF" stroke-width="2" stroke-miterlimit="10" stroke-linecap="round" stroke-linejoin="round"/>
<path d="M14 20H17" stroke="#7F7CFF" stroke-width="2" stroke-miterlimit="10" stroke-linecap="round" stroke-linejoin="round"/>
<path d="M7 20H10" stroke="#7F7CFF" stroke-width="2" stroke-miterlimit="10" stroke-linecap="round" stroke-linejoin="round"/>
<path d="M5 23C3.9 23 3 22.1 3 21V11C3 9.9 3.9 9 5 9C6.1 9 7 9.9 7 11V21C7 22.1 6.1 23 5 23Z" stroke="#7F7CFF" stroke-width="2" stroke-miterlimit="10" stroke-linecap="round" stroke-linejoin="round"/>
<path d="M12 23C10.9 23 10 22.1 10 21V11C10 9.9 10.9 9 12 9C13.1 9 14 9.9 14 11V21C14 22.1 13.1 23 12 23Z" stroke="#7F7CFF" stroke-width="2" stroke-miterlimit="10" stroke-linecap="round" stroke-linejoin="round"/>
<path d="M19 23C17.9 23 17 22.1 17 21V11C17 9.9 17.9 9 19 9C20.1 9 21 9.9 21 11V21C21 22.1 20.1 23 19 23Z" stroke="#7F7CFF" stroke-width="2" stroke-miterlimit="10" stroke-linecap="round" stroke-linejoin="round"/>
<path d="M12 5V1" stroke="#7F7CFF" stroke-width="2" stroke-miterlimit="10" stroke-linecap="round" stroke-linejoin="round"/>
<path d="M7 6V4" stroke="#7F7CFF" stroke-width="2" stroke-miterlimit="10" stroke-linecap="round" stroke-linejoin="round"/>
<path d="M17 6V4" stroke="#7F7CFF" stroke-width="2" stroke-miterlimit="10" stroke-linecap="round" stroke-linejoin="round"/>
</svg>
