<svg width="28" height="28" viewBox="0 0 28 28" fill="none" xmlns="http://www.w3.org/2000/svg">
<path d="M13.9998 27.3337C6.63939 27.3256 0.674587 21.3608 0.666504 14.0004V13.7337C0.813079 6.40639 6.84595 0.570958 14.1741 0.66819C21.5022 0.765422 27.3781 6.75886 27.3302 14.0875C27.2823 21.4161 21.3286 27.3322 13.9998 27.3337ZM13.9998 3.33368C8.1088 3.33368 3.33317 8.10931 3.33317 14.0004C3.33317 19.8914 8.1088 24.667 13.9998 24.667C19.8909 24.667 24.6665 19.8914 24.6665 14.0004C24.6599 8.11205 19.8881 3.3403 13.9998 3.33368ZM13.9998 20.667L12.1198 18.787L15.5598 15.3337H7.33317V12.667H15.5598L12.1198 9.21368L13.9998 7.33368L20.6665 14.0004L13.9998 20.667Z" fill="#554BC8"/>
</svg>
