<svg width="24" height="24" viewBox="0 0 24 24" fill="none" xmlns="http://www.w3.org/2000/svg">
<path d="M2 22L4.464 19.536" stroke="#7F7CFF" stroke-width="2" stroke-miterlimit="10" stroke-linecap="round" stroke-linejoin="round"/>
<path d="M5.96405 10.964L4.46405 12.464C3.52624 13.4018 2.99939 14.6737 2.99939 16C2.99939 17.3262 3.52624 18.5982 4.46405 19.536C5.40185 20.4738 6.67379 21.0006 8.00005 21.0006C9.32631 21.0006 10.5982 20.4738 11.536 19.536L13.036 18.036L5.96405 10.964Z" stroke="#7F7CFF" stroke-width="2" stroke-miterlimit="10" stroke-linecap="round" stroke-linejoin="round"/>
<path d="M22 2L19.536 4.464" stroke="#7F7CFF" stroke-width="2" stroke-miterlimit="10" stroke-linecap="round" stroke-linejoin="round"/>
<path d="M18.036 13.036L19.536 11.536C20.4738 10.5982 21.0006 9.32624 21.0006 7.99999C21.0006 6.67373 20.4738 5.40179 19.536 4.46399C18.5982 3.52618 17.3262 2.99933 16 2.99933C14.6737 2.99933 13.4018 3.52618 12.464 4.46399L10.964 5.96399L18.036 13.036Z" stroke="#7F7CFF" stroke-width="2" stroke-miterlimit="10" stroke-linecap="round" stroke-linejoin="round"/>
<path d="M10 11L8 13" stroke="#7F7CFF" stroke-width="2" stroke-miterlimit="10" stroke-linecap="round" stroke-linejoin="round"/>
<path d="M13 14L11 16" stroke="#7F7CFF" stroke-width="2" stroke-miterlimit="10" stroke-linecap="round" stroke-linejoin="round"/>
</svg>
