<svg width="24" height="24" viewBox="0 0 24 24" fill="none" xmlns="http://www.w3.org/2000/svg">
<path d="M7 17C7 14 12 9 12 9C12 9 17 14 17 17C17 20.2 14.4 22 12 22C9.6 22 7 20.2 7 17Z" stroke="#7F7CFF" stroke-width="2" stroke-miterlimit="10" stroke-linecap="round" stroke-linejoin="round"/>
<path d="M17 7C17 5.1 20 2 20 2C20 2 23 5.1 23 7C23 8.9 21.5 10 20 10C18.5 10 17 8.9 17 7Z" stroke="#7F7CFF" stroke-width="2" stroke-miterlimit="10" stroke-linecap="round" stroke-linejoin="round"/>
<path d="M1 7C1 5.1 4 2 4 2C4 2 7 5.1 7 7C7 8.9 5.5 10 4 10C2.5 10 1 8.9 1 7Z" stroke="#7F7CFF" stroke-width="2" stroke-miterlimit="10" stroke-linecap="round" stroke-linejoin="round"/>
</svg>
