<svg width="24" height="24" viewBox="0 0 24 24" fill="none" xmlns="http://www.w3.org/2000/svg">
<path d="M9.32997 6.8424C10.3887 6.52763 10.9919 5.41415 10.6771 4.35538L10.1072 2.43831C9.79239 1.37954 8.67891 0.776413 7.62015 1.09119C6.56138 1.40596 5.95825 2.51944 6.27303 3.5782L6.84296 5.49528C7.15773 6.55404 8.27121 7.15717 9.32997 6.8424Z" stroke="#7F7CFF" stroke-width="2" stroke-miterlimit="10" stroke-linecap="round" stroke-linejoin="round"/>
<path d="M14.67 6.8424C13.6112 6.52763 13.0081 5.41415 13.3228 4.35538L13.8928 2.43831C14.2076 1.37954 15.321 0.776413 16.3798 1.09119C17.4386 1.40596 18.0417 2.51944 17.7269 3.5782L17.157 5.49528C16.8422 6.55404 15.7287 7.15717 14.67 6.8424Z" stroke="#7F7CFF" stroke-width="2" stroke-miterlimit="10" stroke-linecap="round" stroke-linejoin="round"/>
<path d="M4.72031 10.239C5.5601 9.52143 5.65922 8.25899 4.9417 7.41921L4.5206 6.92636C3.80308 6.08658 2.54064 5.98746 1.70085 6.70498C0.861071 7.4225 0.761951 8.68494 1.47947 9.52473L1.90057 10.0176C2.61809 10.8574 3.88053 10.9565 4.72031 10.239Z" stroke="#7F7CFF" stroke-width="2" stroke-miterlimit="10" stroke-linecap="round" stroke-linejoin="round"/>
<path d="M19.2797 10.239C18.4399 9.52143 18.3408 8.25899 19.0583 7.41921L19.4794 6.92636C20.1969 6.08658 21.4594 5.98746 22.2992 6.70498C23.1389 7.4225 23.2381 8.68494 22.5205 9.52473L22.0995 10.0176C21.3819 10.8574 20.1195 10.9565 19.2797 10.239Z" stroke="#7F7CFF" stroke-width="2" stroke-miterlimit="10" stroke-linecap="round" stroke-linejoin="round"/>
<path d="M7.09797 13.4955L4.83168 17.236C2.94189 20.3551 6.17727 24.0294 9.67135 22.7323L9.86778 22.6594C11.2403 22.1499 12.7597 22.1499 14.1322 22.6594L14.3286 22.7323C17.8227 24.0294 21.0581 20.355 19.1683 17.236L16.902 13.4955C14.5432 10.1681 9.45678 10.1681 7.09797 13.4955Z" stroke="#7F7CFF" stroke-width="2" stroke-miterlimit="10" stroke-linecap="round" stroke-linejoin="round"/>
</svg>
