<svg width="24" height="24" viewBox="0 0 24 24" fill="none" xmlns="http://www.w3.org/2000/svg">
<path d="M16 11C17.1046 11 18 10.1046 18 9C18 7.89543 17.1046 7 16 7C14.8954 7 14 7.89543 14 9C14 10.1046 14.8954 11 16 11Z" stroke="#7F7CFF" stroke-width="2" stroke-miterlimit="10" stroke-linecap="round" stroke-linejoin="round"/>
<path d="M14 15L9.99997 11L6.70697 7.707C6.5195 7.51947 6.41418 7.26516 6.41418 7C6.41418 6.73484 6.5195 6.48053 6.70697 6.293L8.99997 4" stroke="#7F7CFF" stroke-width="2" stroke-miterlimit="10" stroke-linecap="round" stroke-linejoin="round"/>
<path d="M1 22C2.05998 22.0002 3.1061 21.7591 4.05904 21.295C5.01199 20.8308 5.84674 20.1557 6.5 19.321C7.1534 20.1556 7.98817 20.8306 8.94108 21.2947C9.89399 21.7589 10.94 22.0001 12 22.0001C13.06 22.0001 14.106 21.7589 15.0589 21.2947C16.0118 20.8306 16.8466 20.1556 17.5 19.321C18.1533 20.1557 18.988 20.8308 19.941 21.295C20.8939 21.7591 21.94 22.0002 23 22" stroke="#7F7CFF" stroke-width="2" stroke-miterlimit="10" stroke-linecap="round" stroke-linejoin="round"/>
<path d="M10 11L3 18" stroke="#7F7CFF" stroke-width="2" stroke-miterlimit="10" stroke-linecap="round" stroke-linejoin="round"/>
</svg>
